<svg width="60" height="60" viewBox="0 0 60 60" fill="none" xmlns="http://www.w3.org/2000/svg">
<path d="M15.8438 13.7578L12.7852 22.5H47.2148L44.1562 13.7578C43.6289 12.2578 42.2109 11.25 40.6172 11.25H19.3828C17.7891 11.25 16.3711 12.2578 15.8438 13.7578ZM4.64062 23.0625L8.76562 11.2852C10.3477 6.77344 14.6016 3.75 19.3828 3.75H40.6172C45.3984 3.75 49.6523 6.77344 51.2344 11.2852L55.3594 23.0625C58.0781 24.1875 60 26.8711 60 30V52.5C60 54.5742 58.3242 56.25 56.25 56.25H52.5C50.4258 56.25 48.75 54.5742 48.75 52.5V46.875H11.25V52.5C11.25 54.5742 9.57422 56.25 7.5 56.25H3.75C1.67578 56.25 0 54.5742 0 52.5V30C0 26.8711 1.92187 24.1875 4.64062 23.0625ZM15 33.75C15 32.7554 14.6049 31.8016 13.9017 31.0984C13.1984 30.3951 12.2446 30 11.25 30C10.2554 30 9.30161 30.3951 8.59835 31.0984C7.89509 31.8016 7.5 32.7554 7.5 33.75C7.5 34.7446 7.89509 35.6984 8.59835 36.4016C9.30161 37.1049 10.2554 37.5 11.25 37.5C12.2446 37.5 13.1984 37.1049 13.9017 36.4016C14.6049 35.6984 15 34.7446 15 33.75ZM48.75 37.5C49.7446 37.5 50.6984 37.1049 51.4016 36.4016C52.1049 35.6984 52.5 34.7446 52.5 33.75C52.5 32.7554 52.1049 31.8016 51.4016 31.0984C50.6984 30.3951 49.7446 30 48.75 30C47.7554 30 46.8016 30.3951 46.0984 31.0984C45.3951 31.8016 45 32.7554 45 33.75C45 34.7446 45.3951 35.6984 46.0984 36.4016C46.8016 37.1049 47.7554 37.5 48.75 37.5Z" fill="#8758FF"/>
</svg>
