<svg width="60" height="60" viewBox="0 0 60 60" fill="none" xmlns="http://www.w3.org/2000/svg">
<path d="M15 5.625C15 5.12772 14.8025 4.65081 14.4508 4.29917C14.0992 3.94754 13.6223 3.75 13.125 3.75C12.6277 3.75 12.1508 3.94754 11.7992 4.29917C11.4475 4.65081 11.25 5.12772 11.25 5.625V16.875C11.2496 19.0362 11.9958 21.1312 13.3626 22.8054C14.7293 24.4797 16.6324 25.6303 18.75 26.0625V54.375C18.75 54.8723 18.9475 55.3492 19.2992 55.7008C19.6508 56.0525 20.1277 56.25 20.625 56.25C21.1223 56.25 21.5992 56.0525 21.9508 55.7008C22.3025 55.3492 22.5 54.8723 22.5 54.375V26.0625C24.6176 25.6303 26.5207 24.4797 27.8874 22.8054C29.2542 21.1312 30.0004 19.0362 30 16.875V5.625C30 5.12772 29.8025 4.65081 29.4508 4.29917C29.0992 3.94754 28.6223 3.75 28.125 3.75C27.6277 3.75 27.1508 3.94754 26.7992 4.29917C26.4475 4.65081 26.25 5.12772 26.25 5.625V16.875C26.2506 18.0387 25.8903 19.174 25.2186 20.1243C24.547 21.0747 23.5972 21.7933 22.5 22.1812V5.625C22.5 5.12772 22.3025 4.65081 21.9508 4.29917C21.5992 3.94754 21.1223 3.75 20.625 3.75C20.1277 3.75 19.6508 3.94754 19.2992 4.29917C18.9475 4.65081 18.75 5.12772 18.75 5.625V22.1812C17.6528 21.7933 16.703 21.0747 16.0314 20.1243C15.3597 19.174 14.9994 18.0387 15 16.875V5.625ZM41.25 54.375V30H35.625C35.1277 30 34.6508 29.8025 34.2992 29.4508C33.9475 29.0992 33.75 28.6223 33.75 28.125V13.125C33.75 10.6388 34.9725 8.31375 36.6413 6.64125C38.3137 4.9725 40.6388 3.75 43.125 3.75C43.6223 3.75 44.0992 3.94754 44.4508 4.29917C44.8025 4.65081 45 5.12772 45 5.625V54.375C45 54.8723 44.8025 55.3492 44.4508 55.7008C44.0992 56.0525 43.6223 56.25 43.125 56.25C42.6277 56.25 42.1508 56.0525 41.7992 55.7008C41.4475 55.3492 41.25 54.8723 41.25 54.375Z" fill="#8758FF"/>
</svg>
