<svg width="60" height="60" viewBox="0 0 60 60" fill="none" xmlns="http://www.w3.org/2000/svg">
<path d="M36.25 29.375C37.9759 29.375 39.375 27.9759 39.375 26.25C39.375 24.5241 37.9759 23.125 36.25 23.125C34.5241 23.125 33.125 24.5241 33.125 26.25C33.125 27.9759 34.5241 29.375 36.25 29.375Z" fill="#8758FF"/>
<path d="M23.75 29.375C25.4759 29.375 26.875 27.9759 26.875 26.25C26.875 24.5241 25.4759 23.125 23.75 23.125C22.0241 23.125 20.625 24.5241 20.625 26.25C20.625 27.9759 22.0241 29.375 23.75 29.375Z" fill="#8758FF"/>
<path d="M57.35 31.65C57.45 31.125 57.5 30.575 57.5 30C57.5 29.425 57.45 28.875 57.35 28.35C57.0361 26.5047 56.2117 24.7843 54.9701 23.3836C53.7284 21.9829 52.1193 20.958 50.325 20.425C49.008 17.6563 47.1459 15.1819 44.85 13.15C40.9 9.625 35.7 7.5 30 7.5C24.3 7.5 19.1 9.625 15.15 13.15C12.85 15.175 10.975 17.65 9.675 20.425C7.87871 20.9543 6.26747 21.9781 5.02527 23.3794C3.78307 24.7808 2.95999 26.5032 2.65 28.35C2.55 28.875 2.5 29.425 2.5 30C2.5 30.575 2.55 31.125 2.65 31.65C2.96387 33.4953 3.78833 35.2157 5.02995 36.6164C6.27157 38.0171 7.88071 39.042 9.675 39.575C10.9748 42.3262 12.8206 44.7843 15.1 46.8C19.05 50.35 24.275 52.5 30 52.5C35.725 52.5 40.95 50.35 44.925 46.8C47.175 44.8 49.05 42.325 50.35 39.575C52.1411 39.0407 53.7464 38.0148 54.9838 36.614C56.2211 35.2131 57.0409 33.4933 57.35 31.65ZM47.5 35C47.25 35 47.025 34.95 46.775 34.925C46.275 36.6 45.55 38.15 44.625 39.575C41.5 44.35 36.125 47.5 30 47.5C23.875 47.5 18.5 44.35 15.375 39.575C14.45 38.15 13.725 36.6 13.225 34.925C12.975 34.95 12.75 35 12.5 35C9.75 35 7.5 32.75 7.5 30C7.5 27.25 9.75 25 12.5 25C12.75 25 12.975 25.05 13.225 25.075C13.725 23.4 14.45 21.85 15.375 20.425C18.5 15.65 23.875 12.5 30 12.5C36.125 12.5 41.5 15.65 44.625 20.425C45.55 21.85 46.275 23.4 46.775 25.075C47.025 25.05 47.25 25 47.5 25C50.25 25 52.5 27.25 52.5 30C52.5 32.75 50.25 35 47.5 35ZM18.75 35C20.65 39.425 24.975 42.5 30 42.5C35.025 42.5 39.35 39.425 41.25 35H18.75Z" fill="#8758FF"/>
</svg>
