<svg width="60" height="60" viewBox="0 0 60 60" fill="none" xmlns="http://www.w3.org/2000/svg">
<path fill-rule="evenodd" clip-rule="evenodd" d="M27.5775 32.0025L14.1625 6.77C14.0854 6.62505 14.0377 6.46634 14.0219 6.30294C14.0062 6.13953 14.0228 5.97462 14.0708 5.81764C14.1677 5.50058 14.3866 5.23502 14.6794 5.07937C14.9721 4.92372 15.3147 4.89074 15.6317 4.98767C15.7887 5.03566 15.9347 5.11411 16.0614 5.21853C16.1881 5.32295 16.2929 5.4513 16.37 5.59625L29.7862 30.8287L31.6887 29.8162C32.2686 29.508 32.9035 29.3169 33.5572 29.2541C34.2109 29.1912 34.8705 29.2577 35.4985 29.4498C36.1265 29.6419 36.7105 29.9559 37.2171 30.3737C37.7237 30.7915 38.1431 31.3051 38.4512 31.885L39.2612 33.4087L47.8487 45.9762L36.9263 51.7825L33.1425 44.3037L30.9125 45.4325L34.7187 52.9575L30.0362 55.4462L24.4175 41.2987L23.6087 39.7762C23.3004 39.1965 23.1093 38.5616 23.0464 37.908C22.9834 37.2544 23.0498 36.5947 23.2418 35.9668C23.4338 35.3388 23.7476 34.7548 24.1653 34.2481C24.583 33.7414 25.0964 33.322 25.6762 33.0137L27.5775 32.0025ZM32.8612 32.025L26.8487 35.2212C26.5588 35.3754 26.3021 35.5851 26.0933 35.8384C25.8844 36.0918 25.7275 36.3838 25.6315 36.6978C25.5355 37.0117 25.5023 37.3416 25.5338 37.6684C25.5653 37.9952 25.6608 38.3126 25.815 38.6025L26.6237 40.125L37.0525 34.58L36.2425 33.0587C36.0884 32.7688 35.8787 32.5121 35.6253 32.3033C35.372 32.0944 35.08 31.9375 34.766 31.8415C34.452 31.7455 34.1222 31.7123 33.7954 31.7438C33.4686 31.7753 33.1511 31.8708 32.8612 32.025Z" fill="#8758FF"/>
<path d="M22.21 44.2C21.9979 43.9453 21.6934 43.7852 21.3634 43.755C21.0333 43.7247 20.7048 43.8268 20.45 44.0387H20.4525L20.4387 44.0487L20.36 44.1087C20.2481 44.1928 20.1339 44.2737 20.0175 44.3512C19.7075 44.5575 19.245 44.8387 18.65 45.1212C17.1206 45.8563 15.4468 46.2419 13.75 46.25C13.4185 46.25 13.1005 46.3817 12.8661 46.6161C12.6317 46.8505 12.5 47.1685 12.5 47.5C12.5 47.8315 12.6317 48.1495 12.8661 48.3839C13.1005 48.6183 13.4185 48.75 13.75 48.75C15.8188 48.742 17.8598 48.2736 19.725 47.3787C20.3068 47.1033 20.8682 46.7866 21.405 46.4312C21.606 46.2968 21.8019 46.155 21.9925 46.0062L22.03 45.9775L22.0425 45.9675L22.0462 45.9625H22.0487L22.05 45.96C22.3045 45.7478 22.4644 45.4431 22.4944 45.1131C22.5244 44.7831 22.4221 44.4546 22.21 44.2ZM24.79 50.5562C24.8811 50.6928 24.9445 50.846 24.9764 51.007C25.0083 51.1681 25.0082 51.3338 24.976 51.4948C24.9439 51.6558 24.8803 51.8089 24.789 51.9454C24.6976 52.0818 24.5803 52.1989 24.4438 52.29L24.4412 52.2925L24.4362 52.295L24.4237 52.3025L24.385 52.3275C24.1686 52.4652 23.9489 52.5977 23.7263 52.725C23.2875 52.9762 22.6638 53.31 21.9137 53.6425C20.4388 54.2987 18.3762 55 16.25 55C15.9185 55 15.6005 54.8683 15.3661 54.6339C15.1317 54.3995 15 54.0815 15 53.75C15 53.4185 15.1317 53.1005 15.3661 52.8661C15.6005 52.6317 15.9185 52.5 16.25 52.5C17.8725 52.5 19.5625 51.9512 20.8988 51.3575C21.5949 51.0469 22.2705 50.692 22.9212 50.295C22.9577 50.2735 22.9936 50.251 23.0288 50.2275L23.0538 50.2125L23.0562 50.21C23.1928 50.1189 23.346 50.0555 23.507 50.0236C23.6681 49.9917 23.8338 49.9918 23.9948 50.024C24.1558 50.0561 24.3089 50.1197 24.4454 50.211C24.5818 50.3023 24.6989 50.4196 24.79 50.5562Z" fill="#8758FF"/>
</svg>
