<svg width="61" height="60" viewBox="0 0 61 60" fill="none" xmlns="http://www.w3.org/2000/svg">
<path d="M48 47.5V20H13V47.5H48ZM40.5 2.5H45.5V7.5H48C49.3261 7.5 50.5979 8.02678 51.5355 8.96447C52.4732 9.90215 53 11.1739 53 12.5V47.5C53 50.275 50.775 52.5 48 52.5H13C11.6739 52.5 10.4021 51.9732 9.46447 51.0355C8.52678 50.0979 8 48.8261 8 47.5V12.5C8 9.75 10.25 7.5 13 7.5H15.5V2.5H20.5V7.5H40.5V2.5ZM30.5 42.925L29.05 41.6C23.9 36.925 20.5 33.85 20.5 30.075C20.5 27 22.925 24.575 26 24.575C27.75 24.575 29.4 25.375 30.5 26.65C31.6 25.375 33.25 24.575 35 24.575C38.075 24.575 40.5 27 40.5 30.075C40.5 33.85 37.1 36.925 31.95 41.6L30.5 42.925Z" fill="#8758FF"/>
</svg>
