<svg width="61" height="60" viewBox="0 0 61 60" fill="none" xmlns="http://www.w3.org/2000/svg">
<path d="M54.8575 30.8275L32.3575 5.8275C31.41 4.7725 29.59 4.7725 28.6425 5.8275L6.14246 30.8275C5.8186 31.1865 5.60602 31.6318 5.53057 32.1094C5.45512 32.587 5.52005 33.0762 5.71746 33.5175C6.11746 34.42 7.01246 35 7.99996 35H13V52.5C13 53.163 13.2634 53.7989 13.7322 54.2678C14.201 54.7366 14.8369 55 15.5 55H23C23.663 55 24.2989 54.7366 24.7677 54.2678C25.2366 53.7989 25.5 53.163 25.5 52.5V42.5H35.5V52.5C35.5 53.163 35.7634 53.7989 36.2322 54.2678C36.701 54.7366 37.3369 55 38 55H45.5C46.163 55 46.7989 54.7366 47.2677 54.2678C47.7366 53.7989 48 53.163 48 52.5V35H53C53.4841 35.0021 53.9584 34.8632 54.365 34.6004C54.7717 34.3375 55.093 33.9621 55.2899 33.5197C55.4868 33.0774 55.5508 32.5874 55.474 32.1093C55.3972 31.6313 55.183 31.1859 54.8575 30.8275Z" fill="#8758FF"/>
</svg>
