<svg width="60" height="60" viewBox="0 0 60 60" fill="none" xmlns="http://www.w3.org/2000/svg">
<path d="M55.1651 53.2752C55.1651 50.8824 50.7995 44.1948 50.7995 44.1948C50.7995 44.1948 46.3679 50.8824 46.3679 53.2752C46.3679 55.6632 48.3383 57.6 50.7671 57.6C53.1947 57.6 55.1651 55.6632 55.1651 53.2752ZM23.5991 15.8052H14.802V7.13282H17.2008V2.40002H1.19995V7.13282H3.59995V20.5368C3.59995 24.0216 6.46555 26.8452 9.99955 26.8452H23.5991V29.2116H28.4003V13.4412H23.5991V15.8052ZM56.3975 35.5188V22.1148C56.3975 18.6312 53.5331 15.8064 50.0027 15.8064H36.4007V13.4424H31.5996V29.214H36.4007V26.8464H45.1992V35.5188H42.8027V40.2516H58.7999V35.5188H56.3975Z" fill="#8758FF"/>
</svg>
