<svg width="88" height="17" viewBox="0 0 88 17" fill="none" xmlns="http://www.w3.org/2000/svg">
<path d="M8 0L9.79611 5.71213H15.6085L10.9062 9.24241L12.7023 14.9545L8 11.4243L3.29772 14.9545L5.09383 9.24241L0.391548 5.71213H6.20389L8 0Z" fill="#8758FF"/>
<path d="M8 0.833447L9.55762 5.78712L9.61265 5.96213H9.79611H14.8591L10.7561 9.04249L10.6146 9.14868L10.6677 9.3174L12.2306 14.2878L8.1501 11.2243L8 11.1116L7.8499 11.2243L3.76944 14.2878L5.33232 9.3174L5.38537 9.14868L5.24393 9.04249L1.14094 5.96213H6.20389H6.38735L6.44238 5.78712L8 0.833447Z" stroke="black" stroke-opacity="0.4" stroke-width="0.5"/>
<path d="M26 0L27.7961 5.71213H33.6085L28.9062 9.24241L30.7023 14.9545L26 11.4243L21.2977 14.9545L23.0938 9.24241L18.3915 5.71213H24.2039L26 0Z" fill="#8758FF"/>
<path d="M26 0.833447L27.5576 5.78712L27.6127 5.96213H27.7961H32.8591L28.7561 9.04249L28.6146 9.14868L28.6677 9.3174L30.2306 14.2878L26.1501 11.2243L26 11.1116L25.8499 11.2243L21.7694 14.2878L23.3323 9.3174L23.3854 9.14868L23.2439 9.04249L19.1409 5.96213H24.2039H24.3873L24.4424 5.78712L26 0.833447Z" stroke="black" stroke-opacity="0.4" stroke-width="0.5"/>
<path d="M44 0L45.7961 5.71213H51.6085L46.9062 9.24241L48.7023 14.9545L44 11.4243L39.2977 14.9545L41.0938 9.24241L36.3915 5.71213H42.2039L44 0Z" fill="#8758FF"/>
<path d="M44 0.833447L45.5576 5.78712L45.6127 5.96213H45.7961H50.8591L46.7561 9.04249L46.6146 9.14868L46.6677 9.3174L48.2306 14.2878L44.1501 11.2243L44 11.1116L43.8499 11.2243L39.7694 14.2878L41.3323 9.3174L41.3854 9.14868L41.2439 9.04249L37.1409 5.96213H42.2039H42.3873L42.4424 5.78712L44 0.833447Z" stroke="black" stroke-opacity="0.4" stroke-width="0.5"/>
<path d="M62 0L63.7961 5.71213H69.6085L64.9062 9.24241L66.7023 14.9545L62 11.4243L57.2977 14.9545L59.0938 9.24241L54.3915 5.71213H60.2039L62 0Z" fill="#8758FF"/>
<path d="M62 0.833447L63.5576 5.78712L63.6127 5.96213H63.7961H68.8591L64.7561 9.04249L64.6146 9.14868L64.6677 9.3174L66.2306 14.2878L62.1501 11.2243L62 11.1116L61.8499 11.2243L57.7694 14.2878L59.3323 9.3174L59.3854 9.14868L59.2439 9.04249L55.1409 5.96213H60.2039H60.3873L60.4424 5.78712L62 0.833447Z" stroke="black" stroke-opacity="0.4" stroke-width="0.5"/>
<path d="M80 0L81.7961 5.71213H87.6085L82.9062 9.24241L84.7023 14.9545L80 11.4243L75.2977 14.9545L77.0938 9.24241L72.3915 5.71213H78.2039L80 0Z" fill="#8758FF"/>
<path d="M80 0.833447L81.5576 5.78712L81.6127 5.96213H81.7961H86.8591L82.7561 9.04249L82.6146 9.14868L82.6677 9.3174L84.2306 14.2878L80.1501 11.2243L80 11.1116L79.8499 11.2243L75.7694 14.2878L77.3323 9.3174L77.3854 9.14868L77.2439 9.04249L73.1409 5.96213H78.2039H78.3873L78.4424 5.78712L80 0.833447Z" stroke="black" stroke-opacity="0.4" stroke-width="0.5"/>
</svg>
